<svg width="720" height="246" viewBox="0 0 720 246" fill="none" xmlns="http://www.w3.org/2000/svg">
<g clip-path="url(#clip0_1_2221)">
<path d="M240.043 38.1026H254.416V63.7119L266.992 52.9784L280.167 63.7119V38.1026H324.046C330.588 38.0477 336.976 40.1015 342.275 43.9633C347.794 48.0638 352.9 54.786 352.331 65.5195C352.331 65.5195 352.276 66.0637 352.097 66.993C350.867 73.2161 347.526 78.8158 342.645 82.8339C337.765 86.8519 331.648 89.0386 325.342 89.0198H240.043V38.1026Z" fill="white" style="fill:white;fill-opacity:1;"/>
<path d="M398.574 166.167H482.577C489.12 166.112 495.508 168.166 500.806 172.028C503.822 174.214 506.319 177.045 508.117 180.319C510.012 183.853 511.146 188.217 510.862 193.584C510.862 193.584 510.807 194.128 510.628 195.057C509.585 200.471 506.919 205.433 502.987 209.275C498.016 214.146 491.217 193.283 483.874 193.283H398.574L398.574 166.167Z" fill="white" style="fill:white;fill-opacity:1;"/>
<path d="M378.048 35.9861L361.109 53.0293L378.048 70.0725L394.986 53.0293L378.048 35.9861Z" fill="white" style="fill:white;fill-opacity:1;"/>
<path d="M378.048 75.3767L361.109 92.4199L378.048 109.463L394.986 92.4199L378.048 75.3767Z" fill="white" style="fill:white;fill-opacity:1;"/>
<path d="M378.048 114.727L361.109 131.771L378.048 148.814L394.986 131.771L378.048 114.727Z" fill="white" style="fill:white;fill-opacity:1;"/>
<path d="M400.395 51.4627V70.6444H454.711C455.226 70.6435 455.741 70.6765 456.251 70.7432C459.019 71.1092 461.042 73.75 460.42 76.4873C460.253 77.1885 459.914 77.8363 459.434 78.3714C458.954 78.9064 458.347 79.3116 457.671 79.5498C456.885 79.8508 456.049 79.9983 455.208 79.9842H400.395V108.707H456.393C457.045 108.691 457.694 108.812 458.297 109.062C458.901 109.313 459.445 109.687 459.896 110.162C460.734 111.096 461.308 112.562 460.552 114.785C460.207 115.748 459.574 116.579 458.739 117.164C457.904 117.748 456.909 118.057 455.892 118.047H400.395V150.188H457.171C468.941 150.258 480.402 146.397 489.757 139.21C494.178 135.764 498.063 131.674 501.286 127.076C513.466 109.754 515.343 86.976 506.451 67.7364C501.579 57.1973 493.08 46.2229 478.254 39.6146C472.72 37.1929 466.744 35.962 460.71 36.0009H400.395L400.395 51.4627Z" fill="white" style="fill:white;fill-opacity:1;"/>
<path d="M224.939 133.124L208 150.167L224.939 167.21L241.877 150.167L224.939 133.124Z" fill="white" style="fill:white;fill-opacity:1;"/>
<path d="M347.919 132.269C343.048 122.953 334.549 113.252 319.722 107.411C314.123 105.258 308.173 104.174 302.179 104.216H241.863V134.759H298.362C304.342 134.759 310.175 137.002 314.237 141.248C318.8 146.02 322.136 153.842 317.228 166.048C317.228 166.048 314.835 172.71 304.179 175.575C302.09 176.125 299.95 176.456 297.793 176.563C296.772 176.678 295.746 176.738 294.719 176.742H241.863V205.154H298.64C310.398 205.154 321.927 201.853 331.226 195.45C335.576 192.469 339.461 188.855 342.755 184.725C354.934 169.411 356.812 149.277 347.919 132.269Z" fill="white" style="fill:white;fill-opacity:1;"/>
</g>
<defs>
<clipPath id="clip0_1_2221">
<rect width="304" height="174" fill="white" style="fill:white;fill-opacity:1;" transform="translate(208 36)"/>
</clipPath>
</defs>
</svg>
