<svg width="290" height="100" viewBox="0 0 290 100" fill="none" xmlns="http://www.w3.org/2000/svg">
<rect width="290" height="100" fill="#F5F5F5" style="fill:#F5F5F5;fill:color(display-p3 0.9608 0.9608 0.9608);fill-opacity:1;"/>
<path d="M-467 -1744V-1734H12423V-1744V-1754H-467V-1744ZM12425 -1742H12415V8316H12425H12435V-1742H12425ZM12423 8318V8308H-467V8318V8328H12423V8318ZM-469 8316H-459V-1742H-469H-479V8316H-469ZM-467 8318V8308C-462.58 8308 -459 8311.58 -459 8316H-469H-479C-479 8322.63 -473.629 8328 -467 8328V8318ZM12425 8316H12415C12415 8311.58 12418.6 8308 12423 8308V8318V8328C12429.6 8328 12435 8322.63 12435 8316H12425ZM12423 -1744V-1734C12418.6 -1734 12415 -1737.58 12415 -1742H12425H12435C12435 -1748.63 12429.6 -1754 12423 -1754V-1744ZM-467 -1744V-1754C-473.628 -1754 -479 -1748.63 -479 -1742H-469H-459C-459 -1737.58 -462.581 -1734 -467 -1734V-1744Z" fill="black" fill-opacity="0.1" style="fill:black;fill-opacity:0.1;"/>
<g clip-path="url(#clip0_0_1)">
<rect width="1440" height="1024" transform="translate(0 -24)" fill="white" style="fill:white;fill-opacity:1;"/>
<rect width="290" height="1024" transform="translate(0 -24)" fill="#5951A2" style="fill:#5951A2;fill:color(display-p3 0.3490 0.3176 0.6353);fill-opacity:1;"/>
<mask id="path-3-inside-1_0_1" fill="white">
<path d="M0 0H290V100H0V0Z"/>
</mask>
<path d="M0 0V1H290V0V-1H0V0ZM290 100V99H0V100V101H290V100Z" fill="#A59DCC" style="fill:#A59DCC;fill:color(display-p3 0.6471 0.6157 0.8000);fill-opacity:1;" mask="url(#path-3-inside-1_0_1)"/>
<g clip-path="url(#clip1_0_1)">
<path d="M97.6484 16.8285H103.322V26.9209L108.286 22.6909L113.487 26.9209V16.8285H130.808C133.39 16.8069 135.912 17.6163 138.003 19.1381C140.182 20.7541 142.197 23.4033 141.973 27.6332C141.973 27.6332 141.951 27.8477 141.88 28.2139C141.395 30.6664 140.076 32.8731 138.149 34.4566C136.223 36.0401 133.808 36.9018 131.319 36.8944H97.6484V16.8285Z" fill="white" style="fill:white;fill-opacity:1;"/>
<path d="M160.227 67.2973H193.386C195.968 67.2756 198.49 68.085 200.581 69.6069C201.772 70.4685 202.757 71.5843 203.467 72.8742C204.215 74.2673 204.663 75.987 204.551 78.102C204.551 78.102 204.529 78.3164 204.458 78.6826C204.047 80.8161 202.994 82.7715 201.442 84.2856C199.48 86.2054 196.796 77.9832 193.897 77.9832H160.227L160.227 67.2973Z" fill="white" style="fill:white;fill-opacity:1;"/>
<path d="M152.124 15.9944L145.438 22.7109L152.124 29.4275L158.81 22.7109L152.124 15.9944Z" fill="white" style="fill:white;fill-opacity:1;"/>
<path d="M152.124 31.5178L145.438 38.2344L152.124 44.9509L158.81 38.2344L152.124 31.5178Z" fill="white" style="fill:white;fill-opacity:1;"/>
<path d="M152.124 47.0257L145.438 53.7422L152.124 60.4587L158.81 53.7422L152.124 47.0257Z" fill="white" style="fill:white;fill-opacity:1;"/>
<path d="M160.945 22.0937V29.653H182.386C182.589 29.6526 182.792 29.6656 182.994 29.6919C184.086 29.8361 184.885 30.8769 184.64 31.9556C184.574 32.2319 184.44 32.4872 184.25 32.6981C184.061 32.9089 183.821 33.0686 183.554 33.1625C183.244 33.2811 182.914 33.3392 182.582 33.3337H160.945V44.6529H183.05C183.307 44.6465 183.563 44.6942 183.802 44.7929C184.04 44.8917 184.255 45.0393 184.433 45.2263C184.764 45.5945 184.99 46.1722 184.692 47.0483C184.556 47.4278 184.306 47.7554 183.976 47.9858C183.646 48.2161 183.254 48.3377 182.852 48.3336H160.945V61H183.357C188.003 61.0278 192.527 59.5063 196.22 56.674C197.965 55.3159 199.499 53.7042 200.771 51.892C205.579 45.0655 206.32 36.0891 202.81 28.507C200.887 24.3536 197.532 20.0287 191.679 17.4245C189.495 16.4701 187.136 15.985 184.754 16.0004H160.945L160.945 22.0937Z" fill="white" style="fill:white;fill-opacity:1;"/>
<path d="M91.6863 54.2756L85 60.9922L91.6863 67.7087L98.3725 60.9922L91.6863 54.2756Z" fill="white" style="fill:white;fill-opacity:1;"/>
<path d="M140.231 53.9388C138.309 50.2674 134.954 46.4441 129.101 44.1422C126.891 43.2938 124.542 42.8669 122.176 42.8833H98.3672V54.9197H120.669C123.03 54.9197 125.332 55.8039 126.936 57.4773C128.737 59.3576 130.054 62.4402 128.116 67.2506C128.116 67.2506 127.172 69.876 122.966 71.005C122.141 71.2217 121.296 71.3521 120.445 71.3942C120.042 71.4398 119.637 71.4635 119.231 71.465H98.3672V82.6619H120.779C125.42 82.6619 129.971 81.3608 133.642 78.8377C135.359 77.663 136.893 76.2384 138.193 74.6108C143.001 68.5761 143.742 60.6412 140.231 53.9388Z" fill="white" style="fill:white;fill-opacity:1;"/>
</g>
</g>
<defs>
<clipPath id="clip0_0_1">
<rect width="1440" height="1024" fill="white" style="fill:white;fill-opacity:1;" transform="translate(0 -24)"/>
</clipPath>
<clipPath id="clip1_0_1">
<rect width="120" height="68.5714" fill="white" style="fill:white;fill-opacity:1;" transform="translate(85 16)"/>
</clipPath>
</defs>
</svg>
